<mxfile host="app.diagrams.net" agent="Mozilla/5.0 (Macintosh; Intel Mac OS X 10_15_7) AppleWebKit/605.1.15 (KHTML, like Gecko) Version/18.2 Safari/605.1.15" version="26.0.8">
  <diagram name="Page-1" id="3Vx-NvG_LVX4ZoWKZbG5">
    <mxGraphModel dx="1122" dy="1454" grid="1" gridSize="10" guides="1" tooltips="1" connect="1" arrows="1" fold="1" page="1" pageScale="1" pageWidth="1000" pageHeight="720" math="0" shadow="0">
      <root>
        <mxCell id="0" />
        <mxCell id="1" parent="0" />
        <mxCell id="FZc3gWHPLn5l0E03hMyi-178" value="" style="rounded=0;whiteSpace=wrap;html=1;fillColor=#d5e8d4;strokeColor=#82b366;" vertex="1" parent="1">
          <mxGeometry x="175" y="-648" width="360" height="70" as="geometry" />
        </mxCell>
        <mxCell id="FZc3gWHPLn5l0E03hMyi-179" value="" style="rounded=0;whiteSpace=wrap;html=1;fillColor=#d5e8d4;strokeColor=#82b366;" vertex="1" parent="1">
          <mxGeometry x="175" y="-558" width="360" height="70" as="geometry" />
        </mxCell>
        <mxCell id="FZc3gWHPLn5l0E03hMyi-180" value="" style="rounded=0;whiteSpace=wrap;html=1;fillColor=#dae8fc;strokeColor=#6c8ebf;" vertex="1" parent="1">
          <mxGeometry x="555" y="-648" width="360" height="480" as="geometry" />
        </mxCell>
        <mxCell id="FZc3gWHPLn5l0E03hMyi-181" value="" style="rounded=0;whiteSpace=wrap;html=1;fillColor=#d5e8d4;strokeColor=#82b366;" vertex="1" parent="1">
          <mxGeometry x="180" y="-468" width="360" height="70" as="geometry" />
        </mxCell>
        <mxCell id="FZc3gWHPLn5l0E03hMyi-182" value="" style="rounded=0;whiteSpace=wrap;html=1;fillColor=#d5e8d4;strokeColor=#82b366;" vertex="1" parent="1">
          <mxGeometry x="175" y="-238" width="360" height="70" as="geometry" />
        </mxCell>
        <mxCell id="FZc3gWHPLn5l0E03hMyi-183" value="" style="rounded=0;whiteSpace=wrap;html=1;fillColor=#d5e8d4;strokeColor=#82b366;" vertex="1" parent="1">
          <mxGeometry x="175" y="-328" width="360" height="70" as="geometry" />
        </mxCell>
        <mxCell id="FZc3gWHPLn5l0E03hMyi-184" style="edgeStyle=orthogonalEdgeStyle;rounded=0;orthogonalLoop=1;jettySize=auto;html=1;exitX=0;exitY=1;exitDx=0;exitDy=0;" edge="1" parent="1" source="FZc3gWHPLn5l0E03hMyi-185">
          <mxGeometry relative="1" as="geometry">
            <mxPoint x="235" y="-598" as="targetPoint" />
          </mxGeometry>
        </mxCell>
        <mxCell id="FZc3gWHPLn5l0E03hMyi-185" value="&lt;font style=&quot;font-size: 14px;&quot;&gt;R&lt;sub&gt;z&lt;/sub&gt;(θ&lt;sub&gt;1&lt;/sub&gt;)&lt;/font&gt;" style="rounded=0;whiteSpace=wrap;html=1;fillColor=#ffe6cc;strokeColor=#d79b00;" vertex="1" parent="1">
          <mxGeometry x="215" y="-638" width="50" height="50" as="geometry" />
        </mxCell>
        <mxCell id="FZc3gWHPLn5l0E03hMyi-186" value="&lt;font style=&quot;font-size: 14px;&quot;&gt;Ry(ϕ1)&lt;/font&gt;" style="rounded=0;whiteSpace=wrap;html=1;fillColor=#fff2cc;strokeColor=#d6b656;" vertex="1" parent="1">
          <mxGeometry x="335" y="-638" width="50" height="50" as="geometry" />
        </mxCell>
        <mxCell id="FZc3gWHPLn5l0E03hMyi-187" value="&lt;font style=&quot;font-size: 14px;&quot;&gt;R&lt;sub&gt;z&lt;/sub&gt;(ψ&lt;sub&gt;1&lt;/sub&gt;)&lt;/font&gt;" style="rounded=0;whiteSpace=wrap;html=1;fillColor=#ffe6cc;strokeColor=#d79b00;" vertex="1" parent="1">
          <mxGeometry x="455" y="-638" width="50" height="50" as="geometry" />
        </mxCell>
        <mxCell id="FZc3gWHPLn5l0E03hMyi-188" value="" style="endArrow=classic;html=1;rounded=0;" edge="1" parent="1">
          <mxGeometry width="50" height="50" relative="1" as="geometry">
            <mxPoint x="155" y="-613.5" as="sourcePoint" />
            <mxPoint x="215" y="-613.5" as="targetPoint" />
          </mxGeometry>
        </mxCell>
        <mxCell id="FZc3gWHPLn5l0E03hMyi-189" value="" style="endArrow=classic;html=1;rounded=0;entryX=0;entryY=0.5;entryDx=0;entryDy=0;" edge="1" parent="1" target="FZc3gWHPLn5l0E03hMyi-186">
          <mxGeometry width="50" height="50" relative="1" as="geometry">
            <mxPoint x="265" y="-613.5" as="sourcePoint" />
            <mxPoint x="325" y="-613.5" as="targetPoint" />
          </mxGeometry>
        </mxCell>
        <mxCell id="FZc3gWHPLn5l0E03hMyi-190" value="" style="endArrow=classic;html=1;rounded=0;entryX=0;entryY=0.5;entryDx=0;entryDy=0;" edge="1" parent="1">
          <mxGeometry width="50" height="50" relative="1" as="geometry">
            <mxPoint x="385" y="-613.5" as="sourcePoint" />
            <mxPoint x="455" y="-613" as="targetPoint" />
          </mxGeometry>
        </mxCell>
        <mxCell id="FZc3gWHPLn5l0E03hMyi-191" value="" style="endArrow=none;html=1;rounded=0;" edge="1" parent="1">
          <mxGeometry width="50" height="50" relative="1" as="geometry">
            <mxPoint x="505" y="-613.5" as="sourcePoint" />
            <mxPoint x="915" y="-613" as="targetPoint" />
          </mxGeometry>
        </mxCell>
        <mxCell id="FZc3gWHPLn5l0E03hMyi-192" value="C" style="rounded=0;whiteSpace=wrap;html=1;fillColor=#f8cecc;strokeColor=#b85450;" vertex="1" parent="1">
          <mxGeometry x="575" y="-638" width="50" height="50" as="geometry" />
        </mxCell>
        <mxCell id="FZc3gWHPLn5l0E03hMyi-193" style="edgeStyle=orthogonalEdgeStyle;rounded=0;orthogonalLoop=1;jettySize=auto;html=1;exitX=0;exitY=1;exitDx=0;exitDy=0;" edge="1" parent="1" source="FZc3gWHPLn5l0E03hMyi-194">
          <mxGeometry relative="1" as="geometry">
            <mxPoint x="235" y="-508" as="targetPoint" />
          </mxGeometry>
        </mxCell>
        <mxCell id="FZc3gWHPLn5l0E03hMyi-194" value="&lt;font style=&quot;font-size: 14px;&quot;&gt;R&lt;sub&gt;z&lt;/sub&gt;(θ&lt;sub&gt;2&lt;/sub&gt;)&lt;/font&gt;" style="rounded=0;whiteSpace=wrap;html=1;fillColor=#ffe6cc;strokeColor=#d79b00;" vertex="1" parent="1">
          <mxGeometry x="215" y="-548" width="50" height="50" as="geometry" />
        </mxCell>
        <mxCell id="FZc3gWHPLn5l0E03hMyi-195" value="&lt;font style=&quot;font-size: 14px;&quot;&gt;Ry(ϕ&lt;sub&gt;2&lt;/sub&gt;)&lt;/font&gt;" style="rounded=0;whiteSpace=wrap;html=1;fillColor=#fff2cc;strokeColor=#d6b656;" vertex="1" parent="1">
          <mxGeometry x="335" y="-548" width="50" height="50" as="geometry" />
        </mxCell>
        <mxCell id="FZc3gWHPLn5l0E03hMyi-196" value="&lt;font style=&quot;font-size: 14px;&quot;&gt;R&lt;sub&gt;z&lt;/sub&gt;(ψ&lt;sub&gt;2&lt;/sub&gt;)&lt;/font&gt;" style="rounded=0;whiteSpace=wrap;html=1;fillColor=#ffe6cc;strokeColor=#d79b00;" vertex="1" parent="1">
          <mxGeometry x="455" y="-548" width="50" height="50" as="geometry" />
        </mxCell>
        <mxCell id="FZc3gWHPLn5l0E03hMyi-197" value="" style="endArrow=classic;html=1;rounded=0;" edge="1" parent="1">
          <mxGeometry width="50" height="50" relative="1" as="geometry">
            <mxPoint x="155" y="-523.5" as="sourcePoint" />
            <mxPoint x="215" y="-523.5" as="targetPoint" />
          </mxGeometry>
        </mxCell>
        <mxCell id="FZc3gWHPLn5l0E03hMyi-198" value="" style="endArrow=classic;html=1;rounded=0;entryX=0;entryY=0.5;entryDx=0;entryDy=0;" edge="1" parent="1" target="FZc3gWHPLn5l0E03hMyi-195">
          <mxGeometry width="50" height="50" relative="1" as="geometry">
            <mxPoint x="265" y="-523.5" as="sourcePoint" />
            <mxPoint x="325" y="-523.5" as="targetPoint" />
          </mxGeometry>
        </mxCell>
        <mxCell id="FZc3gWHPLn5l0E03hMyi-199" value="" style="endArrow=classic;html=1;rounded=0;entryX=0;entryY=0.5;entryDx=0;entryDy=0;" edge="1" parent="1">
          <mxGeometry width="50" height="50" relative="1" as="geometry">
            <mxPoint x="385" y="-523.5" as="sourcePoint" />
            <mxPoint x="455" y="-523" as="targetPoint" />
          </mxGeometry>
        </mxCell>
        <mxCell id="FZc3gWHPLn5l0E03hMyi-200" value="" style="endArrow=none;html=1;rounded=0;" edge="1" parent="1">
          <mxGeometry width="50" height="50" relative="1" as="geometry">
            <mxPoint x="505" y="-523.5" as="sourcePoint" />
            <mxPoint x="915" y="-523" as="targetPoint" />
          </mxGeometry>
        </mxCell>
        <mxCell id="FZc3gWHPLn5l0E03hMyi-201" value="Z" style="rounded=0;whiteSpace=wrap;html=1;fillColor=#e1d5e7;strokeColor=#9673a6;" vertex="1" parent="1">
          <mxGeometry x="575" y="-548" width="50" height="50" as="geometry" />
        </mxCell>
        <mxCell id="FZc3gWHPLn5l0E03hMyi-202" style="edgeStyle=orthogonalEdgeStyle;rounded=0;orthogonalLoop=1;jettySize=auto;html=1;exitX=0;exitY=1;exitDx=0;exitDy=0;" edge="1" parent="1" source="FZc3gWHPLn5l0E03hMyi-203">
          <mxGeometry relative="1" as="geometry">
            <mxPoint x="235" y="-418" as="targetPoint" />
          </mxGeometry>
        </mxCell>
        <mxCell id="FZc3gWHPLn5l0E03hMyi-203" value="&lt;font style=&quot;font-size: 14px;&quot;&gt;R&lt;sub&gt;z&lt;/sub&gt;(θ&lt;sub&gt;3&lt;/sub&gt;)&lt;/font&gt;" style="rounded=0;whiteSpace=wrap;html=1;fillColor=#ffe6cc;strokeColor=#d79b00;" vertex="1" parent="1">
          <mxGeometry x="215" y="-458" width="50" height="50" as="geometry" />
        </mxCell>
        <mxCell id="FZc3gWHPLn5l0E03hMyi-204" value="&lt;font style=&quot;font-size: 14px;&quot;&gt;Ry(ϕ&lt;sub&gt;3&lt;/sub&gt;)&lt;/font&gt;" style="rounded=0;whiteSpace=wrap;html=1;fillColor=#fff2cc;strokeColor=#d6b656;" vertex="1" parent="1">
          <mxGeometry x="335" y="-458" width="50" height="50" as="geometry" />
        </mxCell>
        <mxCell id="FZc3gWHPLn5l0E03hMyi-205" value="&lt;font style=&quot;font-size: 14px;&quot;&gt;R&lt;sub&gt;z&lt;/sub&gt;(ψ&lt;sub&gt;3&lt;/sub&gt;)&lt;/font&gt;" style="rounded=0;whiteSpace=wrap;html=1;fillColor=#ffe6cc;strokeColor=#d79b00;" vertex="1" parent="1">
          <mxGeometry x="455" y="-458" width="50" height="50" as="geometry" />
        </mxCell>
        <mxCell id="FZc3gWHPLn5l0E03hMyi-206" value="" style="endArrow=classic;html=1;rounded=0;" edge="1" parent="1">
          <mxGeometry width="50" height="50" relative="1" as="geometry">
            <mxPoint x="155" y="-433.5" as="sourcePoint" />
            <mxPoint x="215" y="-433.5" as="targetPoint" />
          </mxGeometry>
        </mxCell>
        <mxCell id="FZc3gWHPLn5l0E03hMyi-207" value="" style="endArrow=classic;html=1;rounded=0;entryX=0;entryY=0.5;entryDx=0;entryDy=0;" edge="1" parent="1" target="FZc3gWHPLn5l0E03hMyi-204">
          <mxGeometry width="50" height="50" relative="1" as="geometry">
            <mxPoint x="265" y="-433.5" as="sourcePoint" />
            <mxPoint x="325" y="-433.5" as="targetPoint" />
          </mxGeometry>
        </mxCell>
        <mxCell id="FZc3gWHPLn5l0E03hMyi-208" value="" style="endArrow=classic;html=1;rounded=0;entryX=0;entryY=0.5;entryDx=0;entryDy=0;" edge="1" parent="1">
          <mxGeometry width="50" height="50" relative="1" as="geometry">
            <mxPoint x="385" y="-433.5" as="sourcePoint" />
            <mxPoint x="455" y="-433" as="targetPoint" />
          </mxGeometry>
        </mxCell>
        <mxCell id="FZc3gWHPLn5l0E03hMyi-209" value="" style="endArrow=none;html=1;rounded=0;" edge="1" parent="1">
          <mxGeometry width="50" height="50" relative="1" as="geometry">
            <mxPoint x="505" y="-433.5" as="sourcePoint" />
            <mxPoint x="915" y="-433" as="targetPoint" />
          </mxGeometry>
        </mxCell>
        <mxCell id="FZc3gWHPLn5l0E03hMyi-210" value="" style="endArrow=classic;html=1;rounded=0;" edge="1" parent="1">
          <mxGeometry width="50" height="50" relative="1" as="geometry">
            <mxPoint x="599.5" y="-588" as="sourcePoint" />
            <mxPoint x="599.5" y="-548" as="targetPoint" />
          </mxGeometry>
        </mxCell>
        <mxCell id="FZc3gWHPLn5l0E03hMyi-211" value="C" style="rounded=0;whiteSpace=wrap;html=1;fillColor=#f8cecc;strokeColor=#b85450;" vertex="1" parent="1">
          <mxGeometry x="665" y="-548" width="50" height="50" as="geometry" />
        </mxCell>
        <mxCell id="FZc3gWHPLn5l0E03hMyi-212" value="Z" style="rounded=0;whiteSpace=wrap;html=1;fillColor=#e1d5e7;strokeColor=#9673a6;" vertex="1" parent="1">
          <mxGeometry x="665" y="-458" width="50" height="50" as="geometry" />
        </mxCell>
        <mxCell id="FZc3gWHPLn5l0E03hMyi-213" value="" style="endArrow=classic;html=1;rounded=0;" edge="1" parent="1">
          <mxGeometry width="50" height="50" relative="1" as="geometry">
            <mxPoint x="690" y="-498" as="sourcePoint" />
            <mxPoint x="689.5" y="-458" as="targetPoint" />
          </mxGeometry>
        </mxCell>
        <mxCell id="FZc3gWHPLn5l0E03hMyi-214" value="&lt;font style=&quot;font-size: 14px;&quot;&gt;R&lt;sub&gt;z&lt;/sub&gt;(θ&lt;sub&gt;16&lt;/sub&gt;)&lt;/font&gt;" style="rounded=0;whiteSpace=wrap;html=1;fillColor=#ffe6cc;strokeColor=#d79b00;" vertex="1" parent="1">
          <mxGeometry x="215" y="-228" width="50" height="50" as="geometry" />
        </mxCell>
        <mxCell id="FZc3gWHPLn5l0E03hMyi-215" value="&lt;font style=&quot;font-size: 14px;&quot;&gt;Ry(ϕ&lt;sub&gt;16&lt;/sub&gt;)&lt;/font&gt;" style="rounded=0;whiteSpace=wrap;html=1;fillColor=#fff2cc;strokeColor=#d6b656;" vertex="1" parent="1">
          <mxGeometry x="335" y="-228" width="50" height="50" as="geometry" />
        </mxCell>
        <mxCell id="FZc3gWHPLn5l0E03hMyi-216" value="&lt;font style=&quot;font-size: 14px;&quot;&gt;R&lt;sub&gt;z&lt;/sub&gt;(ψ&lt;sub&gt;16&lt;/sub&gt;)&lt;/font&gt;" style="rounded=0;whiteSpace=wrap;html=1;fillColor=#ffe6cc;strokeColor=#d79b00;" vertex="1" parent="1">
          <mxGeometry x="455" y="-228" width="50" height="50" as="geometry" />
        </mxCell>
        <mxCell id="FZc3gWHPLn5l0E03hMyi-217" value="" style="endArrow=classic;html=1;rounded=0;" edge="1" parent="1">
          <mxGeometry width="50" height="50" relative="1" as="geometry">
            <mxPoint x="155" y="-203.5" as="sourcePoint" />
            <mxPoint x="215" y="-203.5" as="targetPoint" />
          </mxGeometry>
        </mxCell>
        <mxCell id="FZc3gWHPLn5l0E03hMyi-218" value="" style="endArrow=classic;html=1;rounded=0;entryX=0;entryY=0.5;entryDx=0;entryDy=0;" edge="1" parent="1" target="FZc3gWHPLn5l0E03hMyi-215">
          <mxGeometry width="50" height="50" relative="1" as="geometry">
            <mxPoint x="265" y="-203.5" as="sourcePoint" />
            <mxPoint x="325" y="-203.5" as="targetPoint" />
          </mxGeometry>
        </mxCell>
        <mxCell id="FZc3gWHPLn5l0E03hMyi-219" value="" style="endArrow=classic;html=1;rounded=0;entryX=0;entryY=0.5;entryDx=0;entryDy=0;" edge="1" parent="1">
          <mxGeometry width="50" height="50" relative="1" as="geometry">
            <mxPoint x="385" y="-203.5" as="sourcePoint" />
            <mxPoint x="455" y="-203" as="targetPoint" />
          </mxGeometry>
        </mxCell>
        <mxCell id="FZc3gWHPLn5l0E03hMyi-220" value="" style="endArrow=none;html=1;rounded=0;" edge="1" parent="1" source="FZc3gWHPLn5l0E03hMyi-231">
          <mxGeometry width="50" height="50" relative="1" as="geometry">
            <mxPoint x="505" y="-203.5" as="sourcePoint" />
            <mxPoint x="915" y="-203" as="targetPoint" />
          </mxGeometry>
        </mxCell>
        <mxCell id="FZc3gWHPLn5l0E03hMyi-221" value="" style="endArrow=classic;html=1;rounded=0;" edge="1" parent="1">
          <mxGeometry width="50" height="50" relative="1" as="geometry">
            <mxPoint x="155" y="-293.5" as="sourcePoint" />
            <mxPoint x="215" y="-293.5" as="targetPoint" />
          </mxGeometry>
        </mxCell>
        <mxCell id="FZc3gWHPLn5l0E03hMyi-222" value="" style="endArrow=classic;html=1;rounded=0;entryX=0;entryY=0.5;entryDx=0;entryDy=0;" edge="1" parent="1" target="FZc3gWHPLn5l0E03hMyi-225">
          <mxGeometry width="50" height="50" relative="1" as="geometry">
            <mxPoint x="265" y="-293.5" as="sourcePoint" />
            <mxPoint x="325" y="-293.5" as="targetPoint" />
          </mxGeometry>
        </mxCell>
        <mxCell id="FZc3gWHPLn5l0E03hMyi-223" value="" style="endArrow=classic;html=1;rounded=0;entryX=0;entryY=0.5;entryDx=0;entryDy=0;" edge="1" parent="1">
          <mxGeometry width="50" height="50" relative="1" as="geometry">
            <mxPoint x="385" y="-293.5" as="sourcePoint" />
            <mxPoint x="455" y="-293" as="targetPoint" />
          </mxGeometry>
        </mxCell>
        <mxCell id="FZc3gWHPLn5l0E03hMyi-224" value="&lt;font style=&quot;font-size: 14px;&quot;&gt;R&lt;sub&gt;z&lt;/sub&gt;(ψ&lt;sub&gt;15&lt;/sub&gt;)&lt;/font&gt;" style="rounded=0;whiteSpace=wrap;html=1;fillColor=#ffe6cc;strokeColor=#d79b00;" vertex="1" parent="1">
          <mxGeometry x="455" y="-318" width="50" height="50" as="geometry" />
        </mxCell>
        <mxCell id="FZc3gWHPLn5l0E03hMyi-225" value="&lt;font style=&quot;font-size: 14px;&quot;&gt;Ry(ϕ&lt;sub&gt;15&lt;/sub&gt;)&lt;/font&gt;" style="rounded=0;whiteSpace=wrap;html=1;fillColor=#fff2cc;strokeColor=#d6b656;" vertex="1" parent="1">
          <mxGeometry x="335" y="-318" width="50" height="50" as="geometry" />
        </mxCell>
        <mxCell id="FZc3gWHPLn5l0E03hMyi-226" value="&lt;font style=&quot;font-size: 14px;&quot;&gt;R&lt;sub&gt;z&lt;/sub&gt;(θ&lt;/font&gt;&lt;font&gt;&lt;span style=&quot;font-size: 11.666666px;&quot;&gt;&lt;sub&gt;15&lt;/sub&gt;&lt;/span&gt;&lt;span style=&quot;font-size: 14px;&quot;&gt;)&lt;/span&gt;&lt;/font&gt;" style="rounded=0;whiteSpace=wrap;html=1;fillColor=#ffe6cc;strokeColor=#d79b00;" vertex="1" parent="1">
          <mxGeometry x="215" y="-318" width="50" height="50" as="geometry" />
        </mxCell>
        <mxCell id="FZc3gWHPLn5l0E03hMyi-227" value="" style="endArrow=none;html=1;rounded=0;" edge="1" parent="1" source="FZc3gWHPLn5l0E03hMyi-229">
          <mxGeometry width="50" height="50" relative="1" as="geometry">
            <mxPoint x="505" y="-293.5" as="sourcePoint" />
            <mxPoint x="915" y="-293" as="targetPoint" />
          </mxGeometry>
        </mxCell>
        <mxCell id="FZc3gWHPLn5l0E03hMyi-228" value="" style="endArrow=none;html=1;rounded=0;" edge="1" parent="1" source="FZc3gWHPLn5l0E03hMyi-234" target="FZc3gWHPLn5l0E03hMyi-229">
          <mxGeometry width="50" height="50" relative="1" as="geometry">
            <mxPoint x="505" y="-293.5" as="sourcePoint" />
            <mxPoint x="915" y="-293" as="targetPoint" />
          </mxGeometry>
        </mxCell>
        <mxCell id="FZc3gWHPLn5l0E03hMyi-229" value="C" style="rounded=0;whiteSpace=wrap;html=1;fillColor=#f8cecc;strokeColor=#b85450;" vertex="1" parent="1">
          <mxGeometry x="855" y="-318" width="50" height="50" as="geometry" />
        </mxCell>
        <mxCell id="FZc3gWHPLn5l0E03hMyi-230" value="" style="endArrow=none;html=1;rounded=0;entryX=0;entryY=0.5;entryDx=0;entryDy=0;" edge="1" parent="1" target="FZc3gWHPLn5l0E03hMyi-231">
          <mxGeometry width="50" height="50" relative="1" as="geometry">
            <mxPoint x="505" y="-203.5" as="sourcePoint" />
            <mxPoint x="915" y="-208" as="targetPoint" />
          </mxGeometry>
        </mxCell>
        <mxCell id="FZc3gWHPLn5l0E03hMyi-231" value="Z" style="rounded=0;whiteSpace=wrap;html=1;fillColor=#e1d5e7;strokeColor=#9673a6;" vertex="1" parent="1">
          <mxGeometry x="855" y="-228" width="50" height="50" as="geometry" />
        </mxCell>
        <mxCell id="FZc3gWHPLn5l0E03hMyi-232" value="" style="endArrow=classic;html=1;rounded=0;" edge="1" parent="1">
          <mxGeometry width="50" height="50" relative="1" as="geometry">
            <mxPoint x="880" y="-268" as="sourcePoint" />
            <mxPoint x="879.5" y="-228" as="targetPoint" />
          </mxGeometry>
        </mxCell>
        <mxCell id="FZc3gWHPLn5l0E03hMyi-233" value="" style="endArrow=none;html=1;rounded=0;" edge="1" parent="1" target="FZc3gWHPLn5l0E03hMyi-234">
          <mxGeometry width="50" height="50" relative="1" as="geometry">
            <mxPoint x="505" y="-293.5" as="sourcePoint" />
            <mxPoint x="855" y="-293" as="targetPoint" />
          </mxGeometry>
        </mxCell>
        <mxCell id="FZc3gWHPLn5l0E03hMyi-234" value="Z" style="rounded=0;whiteSpace=wrap;html=1;fillColor=#e1d5e7;strokeColor=#9673a6;" vertex="1" parent="1">
          <mxGeometry x="785" y="-318" width="50" height="50" as="geometry" />
        </mxCell>
        <mxCell id="FZc3gWHPLn5l0E03hMyi-235" value="" style="endArrow=classic;html=1;rounded=0;" edge="1" parent="1">
          <mxGeometry width="50" height="50" relative="1" as="geometry">
            <mxPoint x="810" y="-358" as="sourcePoint" />
            <mxPoint x="809.5" y="-318" as="targetPoint" />
            <Array as="points">
              <mxPoint x="810" y="-348" />
            </Array>
          </mxGeometry>
        </mxCell>
        <mxCell id="FZc3gWHPLn5l0E03hMyi-236" value="" style="endArrow=none;dashed=1;html=1;dashPattern=1 3;strokeWidth=2;rounded=0;" edge="1" parent="1">
          <mxGeometry width="50" height="50" relative="1" as="geometry">
            <mxPoint x="354.5" y="-328" as="sourcePoint" />
            <mxPoint x="354.5" y="-388" as="targetPoint" />
          </mxGeometry>
        </mxCell>
        <mxCell id="FZc3gWHPLn5l0E03hMyi-237" value="" style="endArrow=none;dashed=1;html=1;dashPattern=1 3;strokeWidth=2;rounded=0;" edge="1" parent="1">
          <mxGeometry width="50" height="50" relative="1" as="geometry">
            <mxPoint x="795" y="-338" as="sourcePoint" />
            <mxPoint x="715" y="-398" as="targetPoint" />
          </mxGeometry>
        </mxCell>
        <mxCell id="FZc3gWHPLn5l0E03hMyi-238" value="&lt;font style=&quot;font-size: 16px;&quot;&gt;Quantum&amp;nbsp;&lt;/font&gt;&lt;div&gt;&lt;font style=&quot;font-size: 16px;&quot;&gt;state - 1&lt;/font&gt;&lt;/div&gt;" style="text;html=1;align=center;verticalAlign=middle;resizable=0;points=[];autosize=1;strokeColor=none;fillColor=none;" vertex="1" parent="1">
          <mxGeometry x="60" y="-638" width="90" height="50" as="geometry" />
        </mxCell>
        <mxCell id="FZc3gWHPLn5l0E03hMyi-239" value="&lt;font style=&quot;font-size: 16px;&quot;&gt;Quantum&amp;nbsp;&lt;/font&gt;&lt;div&gt;&lt;font style=&quot;font-size: 16px;&quot;&gt;state - 3&lt;/font&gt;&lt;/div&gt;" style="text;html=1;align=center;verticalAlign=middle;resizable=0;points=[];autosize=1;strokeColor=none;fillColor=none;" vertex="1" parent="1">
          <mxGeometry x="60" y="-453" width="90" height="50" as="geometry" />
        </mxCell>
        <mxCell id="FZc3gWHPLn5l0E03hMyi-240" value="&lt;font style=&quot;font-size: 16px;&quot;&gt;Quantum&amp;nbsp;&lt;/font&gt;&lt;div&gt;&lt;font style=&quot;font-size: 16px;&quot;&gt;state - 2&lt;/font&gt;&lt;/div&gt;" style="text;html=1;align=center;verticalAlign=middle;resizable=0;points=[];autosize=1;strokeColor=none;fillColor=none;" vertex="1" parent="1">
          <mxGeometry x="60" y="-553" width="90" height="50" as="geometry" />
        </mxCell>
        <mxCell id="FZc3gWHPLn5l0E03hMyi-241" value="&lt;font style=&quot;font-size: 16px;&quot;&gt;Quantum&amp;nbsp;&lt;/font&gt;&lt;div&gt;&lt;font style=&quot;font-size: 16px;&quot;&gt;state - 15&lt;/font&gt;&lt;/div&gt;" style="text;html=1;align=center;verticalAlign=middle;resizable=0;points=[];autosize=1;strokeColor=none;fillColor=none;" vertex="1" parent="1">
          <mxGeometry x="60" y="-318" width="90" height="50" as="geometry" />
        </mxCell>
        <mxCell id="FZc3gWHPLn5l0E03hMyi-242" value="&lt;font style=&quot;font-size: 16px;&quot;&gt;Quantum&amp;nbsp;&lt;/font&gt;&lt;div&gt;&lt;font style=&quot;font-size: 16px;&quot;&gt;state - 16&lt;/font&gt;&lt;/div&gt;" style="text;html=1;align=center;verticalAlign=middle;resizable=0;points=[];autosize=1;strokeColor=none;fillColor=none;" vertex="1" parent="1">
          <mxGeometry x="60" y="-228" width="90" height="50" as="geometry" />
        </mxCell>
        <mxCell id="FZc3gWHPLn5l0E03hMyi-245" value="" style="rounded=0;whiteSpace=wrap;html=1;fillColor=#d5e8d4;strokeColor=#82b366;" vertex="1" parent="1">
          <mxGeometry x="175" y="-128" width="360" height="70" as="geometry" />
        </mxCell>
        <mxCell id="FZc3gWHPLn5l0E03hMyi-246" value="&lt;font style=&quot;font-size: 14px;&quot;&gt;R&lt;sub&gt;z&lt;/sub&gt;(θ&lt;/font&gt;&lt;font style=&quot;font-size: 11.666666px;&quot;&gt;&lt;sub&gt;i&lt;/sub&gt;&lt;/font&gt;&lt;font&gt;&lt;span style=&quot;font-size: 14px;&quot;&gt;)&lt;/span&gt;&lt;/font&gt;" style="rounded=0;whiteSpace=wrap;html=1;fillColor=#ffe6cc;strokeColor=#d79b00;" vertex="1" parent="1">
          <mxGeometry x="195" y="-118" width="50" height="50" as="geometry" />
        </mxCell>
        <mxCell id="FZc3gWHPLn5l0E03hMyi-247" value="&lt;font style=&quot;font-size: 14px;&quot;&gt;Ry(ϕ&lt;sub&gt;i&lt;/sub&gt;)&lt;/font&gt;" style="rounded=0;whiteSpace=wrap;html=1;fillColor=#fff2cc;strokeColor=#d6b656;" vertex="1" parent="1">
          <mxGeometry x="315" y="-118" width="50" height="50" as="geometry" />
        </mxCell>
        <mxCell id="FZc3gWHPLn5l0E03hMyi-248" value="&lt;font style=&quot;font-size: 14px;&quot;&gt;R&lt;sub&gt;z&lt;/sub&gt;(ψ&lt;sub&gt;i&lt;/sub&gt;)&lt;/font&gt;" style="rounded=0;whiteSpace=wrap;html=1;fillColor=#ffe6cc;strokeColor=#d79b00;" vertex="1" parent="1">
          <mxGeometry x="435" y="-118" width="50" height="50" as="geometry" />
        </mxCell>
        <mxCell id="FZc3gWHPLn5l0E03hMyi-249" value="&lt;font style=&quot;font-size: 14px;&quot;&gt;=Single Qubit &amp;nbsp;Unitary&amp;nbsp;&lt;/font&gt;&lt;div&gt;&lt;font style=&quot;font-size: 14px;&quot;&gt;Operation [ &amp;nbsp;U&lt;sub&gt;&amp;nbsp;&lt;/sub&gt;(&lt;span style=&quot;white-space: normal;&quot;&gt;θ&lt;/span&gt;&lt;span style=&quot;white-space: normal;&quot;&gt;&lt;sub&gt;i,&lt;/sub&gt;&lt;/span&gt;&lt;span style=&quot;white-space: normal;&quot;&gt;ϕ&lt;/span&gt;&lt;span style=&quot;white-space: normal;&quot;&gt;&lt;sub&gt;i,&amp;nbsp;&lt;/sub&gt;&lt;/span&gt;&lt;span style=&quot;white-space: normal;&quot;&gt;ψ&lt;/span&gt;&lt;span style=&quot;white-space: normal;&quot;&gt;&lt;sub&gt;i&amp;nbsp;&lt;/sub&gt;&lt;/span&gt;&lt;/font&gt;&lt;span style=&quot;font-size: 14px;&quot;&gt;)&lt;/span&gt;&lt;span style=&quot;font-size: 14px; white-space: normal;&quot;&gt;&lt;sub&gt;&amp;nbsp;&amp;nbsp;&lt;/sub&gt;&lt;/span&gt;&lt;span style=&quot;font-size: 14px; white-space: normal;&quot;&gt;&lt;sub&gt;&amp;nbsp;&lt;/sub&gt;&lt;/span&gt;&lt;span style=&quot;font-size: 14px;&quot;&gt;]&lt;/span&gt;&lt;span style=&quot;font-size: 14px; white-space: normal;&quot;&gt;&lt;sub&gt;&amp;nbsp;&lt;/sub&gt;&lt;/span&gt;&lt;span style=&quot;font-size: 14px;&quot;&gt;&amp;nbsp; &amp;nbsp; &amp;nbsp;&lt;/span&gt;&lt;/div&gt;" style="text;html=1;align=center;verticalAlign=middle;resizable=0;points=[];autosize=1;strokeColor=none;fillColor=none;" vertex="1" parent="1">
          <mxGeometry x="550" y="-118" width="210" height="50" as="geometry" />
        </mxCell>
        <mxCell id="FZc3gWHPLn5l0E03hMyi-252" value="&lt;font style=&quot;font-size: 16px;&quot;&gt;Unitary Operation&lt;/font&gt;" style="text;html=1;align=center;verticalAlign=middle;resizable=0;points=[];autosize=1;strokeColor=none;fillColor=none;strokeWidth=0;" vertex="1" parent="1">
          <mxGeometry x="250" y="-685" width="150" height="30" as="geometry" />
        </mxCell>
        <mxCell id="FZc3gWHPLn5l0E03hMyi-253" value="&lt;font style=&quot;font-size: 16px;&quot;&gt;Non-Linear Operation&amp;nbsp;&lt;/font&gt;&lt;div&gt;&lt;font style=&quot;font-size: 16px;&quot;&gt;Using CZ Gates&amp;nbsp;&lt;/font&gt;&lt;/div&gt;" style="text;html=1;align=center;verticalAlign=middle;resizable=0;points=[];autosize=1;strokeColor=none;fillColor=none;" vertex="1" parent="1">
          <mxGeometry x="625" y="-698" width="180" height="50" as="geometry" />
        </mxCell>
      </root>
    </mxGraphModel>
  </diagram>
</mxfile>
